#!OML:ASF I:\Actors\actors\Patient Classification 1\Patient 1\Session 1\Subject1.ASF
:FULLY-SPECIFIED
:DEGREES
591
root 0.62613 17.5235 8.83662 8.33254 -8.06245 -9.96348
lowerback -0.0253297 1.85396 7.52913
upperback -7.7939 2.89377 1.22567
thorax -7.91194 0.962423 -3.09551
lowerneck -14.3582 0.981998 2.10889
upperneck 34.0388 -3.48117 11.8294
head 14.3724 0.364944 3.92106
rclavicle -1.5207e-014 -1.59028e-014
rhumerus 82.6663 59.1812 -1.13885
rradius 117.433
rwrist -46.8454
rhand -1.12666 -33.0562
rfingers 7.12502
rthumb 24.5108 -61.5076
lclavicle -1.5207e-014 -1.59028e-014
lhumerus 34.3981 -64.7977 17.9339
lradius 91.8373
lwrist 64.178
lhand 16.3609 -15.4399
lfingers 7.12502
lthumb 41.1311 9.43464
rfemur -5.82547 24.5437 25.9908
rtibia 3.43908
rfoot -8.95422 -17.8381
rtoes -2.24937
lfemur 5.4739 -37.3393 -11.2582
ltibia -3.29599
lfoot -21.3764 50.6297
ltoes 11.7181
592
root 0.625167 17.5207 8.83591 8.2023 -7.38638 -10.1118
lowerback 0.0534503 1.74001 7.37007
upperback -7.75769 2.74406 1.27164
thorax -7.94072 0.901451 -2.95278
lowerneck -14.4683 0.808878 1.75312
upperneck 33.9542 -3.68203 11.9878
head 14.3801 0.253272 4.01632
rclavicle -2.71341e-014 3.18055e-014
rhumerus 80.8002 60.1444 0.729018
rradius 119.345
rwrist -45.9642
rhand -0.971772 -32.6109
rfingers 7.12502
rthumb 24.6593 -61.0421
lclavicle -2.71341e-014 3.18055e-014
lhumerus 34.8761 -64.5845 17.7983
lradius 91.7472
lwrist 64.2251
lhand 16.4581 -15.4672
lfingers 7.12502
lthumb 41.2223 9.37815
rfemur -5.61994 24.4161 26.2615
rtibia 3.44156
rfoot -9.11334 -18.3356
rtoes -1.95678
lfemur 5.41272 -37.4639 -10.9414
ltibia -3.4014
lfoot -20.4708 50.2842
ltoes 10.928
593
root 0.626686 17.5201 8.83433 8.12 -6.72197 -10.1998
lowerback 0.108455 1.65327 7.20617
upperback -7.73293 2.62811 1.30749
thorax -7.96341 0.857097 -2.81897
lowerneck -14.5587 0.633294 1.29519
upperneck 33.7382 -3.84549 12.176
head 14.322 0.143898 4.13882
rclavicle 1.83876e-014 1.43125e-014
rhumerus 77.1293 61.1488 0.855377
rradius 120.49
rwrist -45.484
rhand 0.605362 -31.3384
rfingers 7.12502
rthumb 26.1701 -59.5546
lclavicle 1.83876e-014 1.43125e-014
lhumerus 35.194 -64.3533 17.8405
lradius 91.6298
lwrist 64.1438
lhand 16.212 -15.7916
lfingers 7.12502
lthumb 40.9913 9.12753
rfemur -5.49872 24.3032 26.4225
rtibia 3.45351
rfoot -9.3147 -18.8156
rtoes -1.46844
lfemur 5.22895 -37.6641 -10.6761
ltibia -3.39822
lfoot -19.9262 49.9631
ltoes 10.512
594
root 0.629352 17.5211 8.83181 8.05698 -6.08675 -10.2646
lowerback 0.180818 1.61792 7.11221
upperback -7.72609 2.58374 1.29614
thorax -8.0045 0.840412 -2.77871
lowerneck -14.6581 0.424876 0.805889
upperneck 33.5024 -4.06058 12.4086
head 14.2658 0.0142463 4.27666
rclavicle -5.66536e-015 -2.46493e-014
rhumerus 71.5181 61.958 -1.25527
rradius 120.583
rwrist -45.1552
rhand -1.88971 -31.9159
rfingers 7.12502
rthumb 23.7792 -60.4645
lclavicle -5.66536e-015 -2.46493e-014
lhumerus 35.3751 -64.1958 17.9571
lradius 91.5663
lwrist 64.0165
lhand 15.943 -16.0611
lfingers 7.12502
lthumb 40.7386 8.93785
rfemur -5.41527 24.2101 26.5436
rtibia 3.46306
rfoot -9.43877 -19.3048
rtoes -1.3711
lfemur 5.0105 -37.9449 -10.4491
ltibia -3.34503
lfoot -19.5891 49.7067
ltoes 10.1444
595
root 0.633911 17.5221 8.83086 7.96569 -5.52674 -10.3365
lowerback 0.261895 1.56557 7.08864
upperback -7.69949 2.52151 1.32101
thorax -8.03076 0.812413 -2.738
lowerneck -14.6759 0.357415 0.70466
upperneck 33.3426 -4.07895 12.334
head 14.1954 -0.0196419 4.24956
rclavicle -1.82882e-014 7.95139e-016
rhumerus 65.1506 62.1233 -4.62531
rradius 119.822
rwrist -45.3238
rhand -3.69598 -32.1154
rfingers 7.12502
rthumb 22.0459 -60.8789
lclavicle -1.82882e-014 7.95139e-016
lhumerus 34.9099 -64.0815 18.444
lradius 91.6749
lwrist 64.143
lhand 16.1783 -16.1145
lfingers 7.12502
lthumb 40.9596 8.81474
rfemur -5.28721 24.0557 26.6725
rtibia 3.4417
rfoot -9.51474 -19.696
rtoes -1.35591
lfemur 4.81928 -38.0436 -10.2202
ltibia -3.29449
lfoot -19.0024 49.3719
ltoes 9.53554
596
root 0.641111 17.5235 8.83126 7.88509 -5.09879 -10.3342
lowerback 0.268825 1.40659 7.0272
upperback -7.63921 2.31209 1.45715
thorax -7.9962 0.721393 -2.54651
lowerneck -14.4855 0.466462 0.92537
upperneck 32.9233 -3.65996 11.6031
head 13.8953 0.0762979 3.93684
rclavicle -1.30204e-014 2.3059e-014
rhumerus 60.3781 61.1033 -7.57895
rradius 117.72
rwrist -45.1727
rhand -3.57799 -31.9901
rfingers 7.12502
rthumb 22.1592 -60.7401
lclavicle -1.30204e-014 2.3059e-014
lhumerus 33.2373 -63.9351 19.7517
lradius 91.9384
lwrist 64.715
lhand 16.6242 -15.9737
lfingers 7.12502
lthumb 41.3782 8.82127
rfemur -5.19246 23.8787 26.6807
rtibia 3.41963
rfoot -9.55862 -19.9538
rtoes -1.35812
lfemur 4.5969 -37.9523 -10.0728
ltibia -3.20879
lfoot -18.2076 48.9912
ltoes 8.62701
597
root 0.649314 17.5257 8.8309 7.82771 -4.88475 -10.2576
lowerback 0.284105 1.17677 6.98855
upperback -7.59254 2.01208 1.63463
thorax -7.98974 0.584075 -2.31835
lowerneck -14.5718 0.700606 1.21128
upperneck 33.0884 -3.16543 10.8721
head 13.9225 0.238638 3.67076
rclavicle -1.63997e-014 -1.59028e-015
rhumerus 57.9051 59.5301 -9.5937
rradius 115.121
rwrist -46.0616
rhand -3.23744 -32.7728
rfingers 7.12502
rthumb 22.4861 -61.4836
lclavicle -1.63997e-014 -1.59028e-015
lhumerus 30.8258 -63.8464 21.4508
lradius 92.241
lwrist 65.7177
lhand 16.2081 -15.6017
lfingers 7.12502
lthumb 40.9875 9.31864
rfemur -5.14326 23.7884 26.5795
rtibia 3.40216
rfoot -9.50722 -20.1231
rtoes -1.49011
lfemur 4.45161 -37.8614 -10.0935
ltibia -3.12295
lfoot -17.588 48.7602
ltoes 7.82472
598
root 0.656769 17.5285 8.831 7.75889 -5.00025 -10.1508
lowerback 0.362124 1.00421 7.02235
upperback -7.57077 1.7942 1.73943
thorax -8.03485 0.476999 -2.21356
lowerneck -14.6852 0.934463 1.54644
upperneck 33.4085 -2.77068 10.3245
head 14.0462 0.391546 3.46695
rclavicle 5.86415e-015 -1.03368e-014
rhumerus 57.3324 57.8161 -11.2557
rradius 112.328
rwrist -46.9293
rhand -4.23897 -32.2329
rfingers 7.12502
rthumb 21.5245 -61.0569
lclavicle 5.86415e-015 -1.03368e-014
lhumerus 28.8409 -63.9646 22.5584
lradius 92.3909
lwrist 66.7295
lhand 15.7675 -15.1776
lfingers 7.12502
lthumb 40.5736 9.87277
rfemur -5.06518 23.8581 26.4582
rtibia 3.37138
rfoot -9.40553 -20.1836
rtoes -1.6871
lfemur 4.57366 -37.8411 -10.3401
ltibia -3.11367
lfoot -17.4995 48.8141
ltoes 7.69129
599
root 0.661443 17.5317 8.83188 7.72593 -5.51915 -10.0795
lowerback 0.389165 1.03004 7.1409
upperback -7.57084 1.83313 1.69848
thorax -8.04463 0.485677 -2.32566
lowerneck -14.6408 1.04002 1.94869
upperneck 33.6493 -2.65821 10.024
head 14.1306 0.456533 3.30173
rclavicle 2.17669e-014 -1.82882e-014
rhumerus 57.0035 56.2581 -13.3485
rradius 109.638
rwrist -46.6453
rhand -5.30287 -33.1133
rfingers 7.12502
rthumb 20.5024 -62.0508
lclavicle 2.17669e-014 -1.82882e-014
lhumerus 28.2732 -64.3816 22.3959
lradius 92.2645
lwrist 67.133
lhand 16.2423 -14.8511
lfingers 7.12502
lthumb 41.0197 10.059
rfemur -5.07223 23.9939 26.3624
rtibia 3.41552
rfoot -9.27931 -19.9106
rtoes -1.98209
lfemur 4.94829 -37.8206 -10.7025
ltibia -3.21684
lfoot -18.107 49.1513
ltoes 8.41122
600
root 0.663267 17.535 8.82936 7.80724 -6.34142 -10.0338
lowerback 0.357461 1.2244 7.31627
upperback -7.60903 2.08975 1.54363
thorax -8.03554 0.593062 -2.60296
lowerneck -14.6892 0.939221 2.11688
upperneck 34.0629 -2.97033 10.173
head 14.358 0.37489 3.30942
rclavicle -3.18055e-015 3.49861e-014
rhumerus 57.0247 54.8837 -15.8696
rradius 107.326
rwrist -45.4213
rhand -4.29195 -31.8789
rfingers 7.12502
rthumb 21.4736 -60.7087
lclavicle -3.18055e-015 3.49861e-014
lhumerus 28.9128 -64.9476 21.2554
lradius 91.9421
lwrist 66.6764
lhand 16.516 -14.6774
lfingers 7.12502
lthumb 41.2767 10.1504
rfemur -5.2918 24.2088 26.2362
rtibia 3.56707
rfoot -9.16321 -19.3595
rtoes -2.15463
lfemur 5.23758 -37.504 -10.9566
ltibia -3.32347
lfoot -18.8893 49.4642
ltoes 9.41287
